<svg width="171" height="60" viewBox="0 0 171 60" fill="none" xmlns="http://www.w3.org/2000/svg">
<rect x="0.681641" width="170" height="60" rx="10" fill="url(#paint0_linear_1_1022)"/>
<path d="M67.8379 35V23.625H71.7363C73.0228 23.625 74.002 23.8828 74.6738 24.3984C75.3457 24.9141 75.6816 25.6823 75.6816 26.7031C75.6816 27.224 75.541 27.6927 75.2598 28.1094C74.9785 28.526 74.5671 28.849 74.0254 29.0781C74.64 29.2448 75.1139 29.5599 75.4473 30.0234C75.7858 30.4818 75.9551 31.0339 75.9551 31.6797C75.9551 32.7474 75.6113 33.5677 74.9238 34.1406C74.2415 34.7135 73.2624 35 71.9863 35H67.8379ZM69.8145 29.8672V33.4219H72.0098C72.6296 33.4219 73.1139 33.2682 73.4629 32.9609C73.8118 32.6536 73.9863 32.2266 73.9863 31.6797C73.9863 30.4974 73.3822 29.8932 72.1738 29.8672H69.8145ZM69.8145 28.4141H71.752C72.3665 28.4141 72.8457 28.276 73.1895 28C73.5384 27.7188 73.7129 27.3229 73.7129 26.8125C73.7129 26.25 73.5514 25.8438 73.2285 25.5938C72.9108 25.3438 72.4134 25.2188 71.7363 25.2188H69.8145V28.4141ZM86.252 23.625V31.2266C86.252 32.4349 85.8639 33.3932 85.0879 34.1016C84.3171 34.8047 83.2884 35.1562 82.002 35.1562C80.6999 35.1562 79.666 34.8099 78.9004 34.1172C78.1348 33.4193 77.752 32.4531 77.752 31.2188V23.625H79.7207V31.2344C79.7207 31.9948 79.9134 32.5755 80.2988 32.9766C80.6842 33.3776 81.252 33.5781 82.002 33.5781C83.5228 33.5781 84.2832 32.776 84.2832 31.1719V23.625H86.252ZM92.0801 29.0156L94.6973 23.625H96.8848L93.0723 30.8125V35H91.0879V30.8125L87.2676 23.625H89.4629L92.0801 29.0156ZM111.127 35H109.15L104.08 26.9297V35H102.104V23.625H104.08L109.166 31.7266V23.625H111.127V35ZM122.541 29.6094C122.541 30.724 122.348 31.7031 121.963 32.5469C121.577 33.3854 121.025 34.0312 120.307 34.4844C119.593 34.9323 118.77 35.1562 117.838 35.1562C116.916 35.1562 116.093 34.9323 115.369 34.4844C114.65 34.0312 114.093 33.388 113.697 32.5547C113.307 31.7214 113.109 30.7604 113.104 29.6719V29.0312C113.104 27.9219 113.299 26.9427 113.689 26.0938C114.085 25.2448 114.64 24.5964 115.354 24.1484C116.072 23.6953 116.895 23.4688 117.822 23.4688C118.749 23.4688 119.57 23.6927 120.283 24.1406C121.002 24.5833 121.557 25.224 121.947 26.0625C122.338 26.8958 122.536 27.8672 122.541 28.9766V29.6094ZM120.564 29.0156C120.564 27.7552 120.325 26.7891 119.846 26.1172C119.372 25.4453 118.697 25.1094 117.822 25.1094C116.968 25.1094 116.299 25.4453 115.814 26.1172C115.335 26.7839 115.09 27.7292 115.08 28.9531V29.6094C115.08 30.8594 115.322 31.8255 115.807 32.5078C116.296 33.1901 116.973 33.5312 117.838 33.5312C118.713 33.5312 119.385 33.1979 119.854 32.5312C120.327 31.8646 120.564 30.8906 120.564 29.6094V29.0156ZM133.432 32.1875L135.182 23.625H137.143L134.518 35H132.627L130.463 26.6953L128.252 35H126.354L123.729 23.625H125.689L127.455 32.1719L129.627 23.625H131.283L133.432 32.1875Z" fill="white"/>
<path d="M55.7616 25.0001C55.5889 24.7007 55.3414 24.4512 55.0435 24.276C54.7455 24.1007 54.4073 24.0057 54.0616 24.0001H41.2616L40.6816 21.7401C40.623 21.5219 40.4923 21.33 40.3107 21.1957C40.1291 21.0613 39.9074 20.9924 39.6816 21.0001H37.6816C37.4164 21.0001 37.1621 21.1055 36.9745 21.293C36.787 21.4805 36.6816 21.7349 36.6816 22.0001C36.6816 22.2653 36.787 22.5197 36.9745 22.7072C37.1621 22.8947 37.4164 23.0001 37.6816 23.0001H38.9216L41.6816 33.2601C41.7402 33.4783 41.871 33.6702 42.0526 33.8045C42.2341 33.9389 42.4559 34.0078 42.6816 34.0001H51.6816C51.8663 33.9995 52.0472 33.9479 52.2043 33.8508C52.3614 33.7537 52.4885 33.615 52.5716 33.4501L55.8516 26.8901C55.9938 26.5921 56.06 26.2636 56.0443 25.9338C56.0286 25.604 55.9315 25.2832 55.7616 25.0001Z" fill="white"/>
<path d="M42.1816 39C43.0101 39 43.6816 38.3284 43.6816 37.5C43.6816 36.6716 43.0101 36 42.1816 36C41.3532 36 40.6816 36.6716 40.6816 37.5C40.6816 38.3284 41.3532 39 42.1816 39Z" fill="white"/>
<path d="M52.1816 39C53.0101 39 53.6816 38.3284 53.6816 37.5C53.6816 36.6716 53.0101 36 52.1816 36C51.3532 36 50.6816 36.6716 50.6816 37.5C50.6816 38.3284 51.3532 39 52.1816 39Z" fill="white"/>
<defs>
<linearGradient id="paint0_linear_1_1022" x1="85.6816" y1="0" x2="85.6816" y2="60" gradientUnits="userSpaceOnUse">
<stop stop-color="#3D4FF3"/>
<stop offset="1" stop-color="#3543BC"/>
</linearGradient>
</defs>
</svg>
