<svg width="414" height="24" viewBox="0 0 414 24" fill="none" xmlns="http://www.w3.org/2000/svg">
<path d="M10.1875 17H8.21875V11.9453H3.13281V17H1.15625V5.625H3.13281V10.3594H8.21875V5.625H10.1875V17ZM11.9922 12.6953C11.9922 11.8672 12.1562 11.1224 12.4844 10.4609C12.8125 9.79427 13.2734 9.28385 13.8672 8.92969C14.4609 8.57031 15.1432 8.39062 15.9141 8.39062C17.0547 8.39062 17.9792 8.75781 18.6875 9.49219C19.401 10.2266 19.7865 11.2005 19.8438 12.4141L19.8516 12.8594C19.8516 13.6927 19.6901 14.4375 19.3672 15.0938C19.0495 15.75 18.5911 16.2578 17.9922 16.6172C17.3984 16.9766 16.7109 17.1562 15.9297 17.1562C14.737 17.1562 13.7812 16.7604 13.0625 15.9688C12.349 15.1719 11.9922 14.112 11.9922 12.7891V12.6953ZM13.8906 12.8594C13.8906 13.7292 14.0703 14.4115 14.4297 14.9062C14.7891 15.3958 15.2891 15.6406 15.9297 15.6406C16.5703 15.6406 17.0677 15.3906 17.4219 14.8906C17.7812 14.3906 17.9609 13.6589 17.9609 12.6953C17.9609 11.8411 17.776 11.1641 17.4062 10.6641C17.0417 10.1641 16.5443 9.91406 15.9141 9.91406C15.2943 9.91406 14.8021 10.1615 14.4375 10.6562C14.0729 11.1458 13.8906 11.8802 13.8906 12.8594ZM23.2422 8.54688L23.2969 9.42969C23.8906 8.73698 24.7031 8.39062 25.7344 8.39062C26.8646 8.39062 27.638 8.82292 28.0547 9.6875C28.6693 8.82292 29.5339 8.39062 30.6484 8.39062C31.5807 8.39062 32.2734 8.64844 32.7266 9.16406C33.1849 9.67969 33.4193 10.4401 33.4297 11.4453V17H31.5312V11.5C31.5312 10.9635 31.4141 10.5703 31.1797 10.3203C30.9453 10.0703 30.5573 9.94531 30.0156 9.94531C29.5833 9.94531 29.2292 10.0625 28.9531 10.2969C28.6823 10.526 28.4922 10.8281 28.3828 11.2031L28.3906 17H26.4922V11.4375C26.4661 10.4427 25.9583 9.94531 24.9688 9.94531C24.2083 9.94531 23.6693 10.2552 23.3516 10.875V17H21.4531V8.54688H23.2422ZM39.1016 17.1562C37.8984 17.1562 36.9219 16.7786 36.1719 16.0234C35.4271 15.263 35.0547 14.2526 35.0547 12.9922V12.7578C35.0547 11.9141 35.2161 11.1615 35.5391 10.5C35.8672 9.83333 36.3255 9.3151 36.9141 8.94531C37.5026 8.57552 38.1589 8.39062 38.8828 8.39062C40.0339 8.39062 40.9219 8.75781 41.5469 9.49219C42.1771 10.2266 42.4922 11.2656 42.4922 12.6094V13.375H36.9688C37.026 14.0729 37.2578 14.625 37.6641 15.0312C38.0755 15.4375 38.5911 15.6406 39.2109 15.6406C40.0807 15.6406 40.7891 15.2891 41.3359 14.5859L42.3594 15.5625C42.0208 16.0677 41.5677 16.4609 41 16.7422C40.4375 17.0182 39.8047 17.1562 39.1016 17.1562ZM38.875 9.91406C38.3542 9.91406 37.9323 10.0964 37.6094 10.4609C37.2917 10.8255 37.0885 11.3333 37 11.9844H40.6172V11.8438C40.5755 11.2083 40.4062 10.7292 40.1094 10.4062C39.8125 10.0781 39.401 9.91406 38.875 9.91406Z" fill="#3C3C3C"/>
<path d="M103.133 12.7734V17H101.156V5.625H105.508C106.779 5.625 107.786 5.95573 108.531 6.61719C109.281 7.27865 109.656 8.15365 109.656 9.24219C109.656 10.3568 109.289 11.224 108.555 11.8438C107.826 12.4635 106.802 12.7734 105.484 12.7734H103.133ZM103.133 11.1875H105.508C106.211 11.1875 106.747 11.0234 107.117 10.6953C107.487 10.362 107.672 9.88281 107.672 9.25781C107.672 8.64323 107.484 8.15365 107.109 7.78906C106.734 7.41927 106.219 7.22917 105.562 7.21875H103.133V11.1875ZM115.633 10.2812C115.383 10.2396 115.125 10.2188 114.859 10.2188C113.99 10.2188 113.404 10.5521 113.102 11.2188V17H111.203V8.54688H113.016L113.062 9.49219C113.521 8.75781 114.156 8.39062 114.969 8.39062C115.24 8.39062 115.464 8.42708 115.641 8.5L115.633 10.2812ZM116.195 12.6953C116.195 11.8672 116.359 11.1224 116.688 10.4609C117.016 9.79427 117.477 9.28385 118.07 8.92969C118.664 8.57031 119.346 8.39062 120.117 8.39062C121.258 8.39062 122.182 8.75781 122.891 9.49219C123.604 10.2266 123.99 11.2005 124.047 12.4141L124.055 12.8594C124.055 13.6927 123.893 14.4375 123.57 15.0938C123.253 15.75 122.794 16.2578 122.195 16.6172C121.602 16.9766 120.914 17.1562 120.133 17.1562C118.94 17.1562 117.984 16.7604 117.266 15.9688C116.552 15.1719 116.195 14.112 116.195 12.7891V12.6953ZM118.094 12.8594C118.094 13.7292 118.273 14.4115 118.633 14.9062C118.992 15.3958 119.492 15.6406 120.133 15.6406C120.773 15.6406 121.271 15.3906 121.625 14.8906C121.984 14.3906 122.164 13.6589 122.164 12.6953C122.164 11.8411 121.979 11.1641 121.609 10.6641C121.245 10.1641 120.747 9.91406 120.117 9.91406C119.497 9.91406 119.005 10.1615 118.641 10.6562C118.276 11.1458 118.094 11.8802 118.094 12.8594ZM125.305 12.7109C125.305 11.4089 125.607 10.3646 126.211 9.57812C126.815 8.78646 127.625 8.39062 128.641 8.39062C129.536 8.39062 130.26 8.70312 130.812 9.32812V5H132.711V17H130.992L130.898 16.125C130.331 16.8125 129.573 17.1562 128.625 17.1562C127.635 17.1562 126.833 16.7578 126.219 15.9609C125.609 15.1641 125.305 14.0807 125.305 12.7109ZM127.203 12.875C127.203 13.7344 127.367 14.4062 127.695 14.8906C128.029 15.3698 128.5 15.6094 129.109 15.6094C129.885 15.6094 130.453 15.263 130.812 14.5703V10.9609C130.464 10.2839 129.901 9.94531 129.125 9.94531C128.51 9.94531 128.036 10.1901 127.703 10.6797C127.37 11.1641 127.203 11.8958 127.203 12.875ZM139.812 16.1719C139.255 16.8281 138.464 17.1562 137.438 17.1562C136.521 17.1562 135.826 16.888 135.352 16.3516C134.883 15.8151 134.648 15.0391 134.648 14.0234V8.54688H136.547V14C136.547 15.0729 136.992 15.6094 137.883 15.6094C138.805 15.6094 139.427 15.2786 139.75 14.6172V8.54688H141.648V17H139.859L139.812 16.1719ZM147.055 15.6406C147.529 15.6406 147.922 15.5026 148.234 15.2266C148.547 14.9505 148.714 14.6094 148.734 14.2031H150.523C150.503 14.7292 150.339 15.2214 150.031 15.6797C149.724 16.1328 149.307 16.4922 148.781 16.7578C148.255 17.0234 147.688 17.1562 147.078 17.1562C145.896 17.1562 144.958 16.7734 144.266 16.0078C143.573 15.2422 143.227 14.1849 143.227 12.8359V12.6406C143.227 11.3542 143.57 10.3255 144.258 9.55469C144.945 8.77865 145.883 8.39062 147.07 8.39062C148.076 8.39062 148.893 8.6849 149.523 9.27344C150.159 9.85677 150.492 10.625 150.523 11.5781H148.734C148.714 11.0938 148.547 10.6953 148.234 10.3828C147.927 10.0703 147.534 9.91406 147.055 9.91406C146.44 9.91406 145.966 10.138 145.633 10.5859C145.299 11.0286 145.13 11.7031 145.125 12.6094V12.9141C145.125 13.8307 145.289 14.5156 145.617 14.9688C145.951 15.4167 146.43 15.6406 147.055 15.6406ZM154.336 6.49219V8.54688H155.828V9.95312H154.336V14.6719C154.336 14.9948 154.398 15.2292 154.523 15.375C154.654 15.5156 154.883 15.5859 155.211 15.5859C155.43 15.5859 155.651 15.5599 155.875 15.5078V16.9766C155.443 17.0964 155.026 17.1562 154.625 17.1562C153.167 17.1562 152.438 16.3516 152.438 14.7422V9.95312H151.047V8.54688H152.438V6.49219H154.336Z" fill="#3C3C3C"/>
<path d="M221.523 14.3516H217.117L216.195 17H214.141L218.438 5.625H220.211L224.516 17H222.453L221.523 14.3516ZM217.672 12.7578H220.969L219.32 8.03906L217.672 12.7578ZM233.047 12.8594C233.047 14.1719 232.753 15.2161 232.164 15.9922C231.581 16.7682 230.776 17.1562 229.75 17.1562C228.76 17.1562 227.99 16.7995 227.438 16.0859L227.344 17H225.625V5H227.523V9.35938C228.07 8.71354 228.807 8.39062 229.734 8.39062C230.766 8.39062 231.576 8.77344 232.164 9.53906C232.753 10.3047 233.047 11.375 233.047 12.75V12.8594ZM231.148 12.6953C231.148 11.7786 230.987 11.0911 230.664 10.6328C230.341 10.1745 229.872 9.94531 229.258 9.94531C228.435 9.94531 227.857 10.3047 227.523 11.0234V14.5078C227.862 15.2422 228.445 15.6094 229.273 15.6094C229.867 15.6094 230.326 15.388 230.648 14.9453C230.971 14.5026 231.138 13.8333 231.148 12.9375V12.6953ZM234.289 12.6953C234.289 11.8672 234.453 11.1224 234.781 10.4609C235.109 9.79427 235.57 9.28385 236.164 8.92969C236.758 8.57031 237.44 8.39062 238.211 8.39062C239.352 8.39062 240.276 8.75781 240.984 9.49219C241.698 10.2266 242.083 11.2005 242.141 12.4141L242.148 12.8594C242.148 13.6927 241.987 14.4375 241.664 15.0938C241.346 15.75 240.888 16.2578 240.289 16.6172C239.695 16.9766 239.008 17.1562 238.227 17.1562C237.034 17.1562 236.078 16.7604 235.359 15.9688C234.646 15.1719 234.289 14.112 234.289 12.7891V12.6953ZM236.188 12.8594C236.188 13.7292 236.367 14.4115 236.727 14.9062C237.086 15.3958 237.586 15.6406 238.227 15.6406C238.867 15.6406 239.365 15.3906 239.719 14.8906C240.078 14.3906 240.258 13.6589 240.258 12.6953C240.258 11.8411 240.073 11.1641 239.703 10.6641C239.339 10.1641 238.841 9.91406 238.211 9.91406C237.591 9.91406 237.099 10.1615 236.734 10.6562C236.37 11.1458 236.188 11.8802 236.188 12.8594ZM248.875 16.1719C248.318 16.8281 247.526 17.1562 246.5 17.1562C245.583 17.1562 244.888 16.888 244.414 16.3516C243.945 15.8151 243.711 15.0391 243.711 14.0234V8.54688H245.609V14C245.609 15.0729 246.055 15.6094 246.945 15.6094C247.867 15.6094 248.49 15.2786 248.812 14.6172V8.54688H250.711V17H248.922L248.875 16.1719ZM255.023 6.49219V8.54688H256.516V9.95312H255.023V14.6719C255.023 14.9948 255.086 15.2292 255.211 15.375C255.341 15.5156 255.57 15.5859 255.898 15.5859C256.117 15.5859 256.339 15.5599 256.562 15.5078V16.9766C256.13 17.0964 255.714 17.1562 255.312 17.1562C253.854 17.1562 253.125 16.3516 253.125 14.7422V9.95312H251.734V8.54688H253.125V6.49219H255.023ZM267.078 16.1719C266.521 16.8281 265.729 17.1562 264.703 17.1562C263.786 17.1562 263.091 16.888 262.617 16.3516C262.148 15.8151 261.914 15.0391 261.914 14.0234V8.54688H263.812V14C263.812 15.0729 264.258 15.6094 265.148 15.6094C266.07 15.6094 266.693 15.2786 267.016 14.6172V8.54688H268.914V17H267.125L267.078 16.1719ZM275.586 14.7031C275.586 14.3646 275.445 14.1068 275.164 13.9297C274.888 13.7526 274.427 13.5964 273.781 13.4609C273.135 13.3255 272.596 13.1536 272.164 12.9453C271.216 12.487 270.742 11.8229 270.742 10.9531C270.742 10.224 271.049 9.61458 271.664 9.125C272.279 8.63542 273.06 8.39062 274.008 8.39062C275.018 8.39062 275.833 8.64062 276.453 9.14062C277.078 9.64062 277.391 10.2891 277.391 11.0859H275.492C275.492 10.7214 275.357 10.4193 275.086 10.1797C274.815 9.9349 274.456 9.8125 274.008 9.8125C273.591 9.8125 273.25 9.90885 272.984 10.1016C272.724 10.2943 272.594 10.5521 272.594 10.875C272.594 11.1667 272.716 11.3932 272.961 11.5547C273.206 11.7161 273.701 11.8802 274.445 12.0469C275.19 12.2083 275.773 12.4036 276.195 12.6328C276.622 12.8568 276.938 13.1276 277.141 13.4453C277.349 13.763 277.453 14.1484 277.453 14.6016C277.453 15.362 277.138 15.9792 276.508 16.4531C275.878 16.9219 275.052 17.1562 274.031 17.1562C273.339 17.1562 272.721 17.0312 272.18 16.7812C271.638 16.5312 271.216 16.1875 270.914 15.75C270.612 15.3125 270.461 14.8411 270.461 14.3359H272.305C272.331 14.7839 272.5 15.1302 272.812 15.375C273.125 15.6146 273.539 15.7344 274.055 15.7344C274.555 15.7344 274.935 15.6406 275.195 15.4531C275.456 15.2604 275.586 15.0104 275.586 14.7031Z" fill="#3C3C3C"/>
<path d="M345.836 13.2969C345.721 14.5104 345.273 15.4583 344.492 16.1406C343.711 16.8177 342.672 17.1562 341.375 17.1562C340.469 17.1562 339.669 16.9427 338.977 16.5156C338.289 16.0833 337.758 15.4714 337.383 14.6797C337.008 13.888 336.812 12.9688 336.797 11.9219V10.8594C336.797 9.78646 336.987 8.84115 337.367 8.02344C337.747 7.20573 338.292 6.57552 339 6.13281C339.714 5.6901 340.536 5.46875 341.469 5.46875C342.724 5.46875 343.734 5.8099 344.5 6.49219C345.266 7.17448 345.711 8.13802 345.836 9.38281H343.867C343.773 8.5651 343.534 7.97656 343.148 7.61719C342.768 7.2526 342.208 7.07031 341.469 7.07031C340.609 7.07031 339.948 7.38542 339.484 8.01562C339.026 8.64062 338.792 9.5599 338.781 10.7734V11.7812C338.781 13.0104 339 13.9479 339.438 14.5938C339.88 15.2396 340.526 15.5625 341.375 15.5625C342.151 15.5625 342.734 15.388 343.125 15.0391C343.516 14.6901 343.763 14.1094 343.867 13.2969H345.836ZM347.07 12.6953C347.07 11.8672 347.234 11.1224 347.562 10.4609C347.891 9.79427 348.352 9.28385 348.945 8.92969C349.539 8.57031 350.221 8.39062 350.992 8.39062C352.133 8.39062 353.057 8.75781 353.766 9.49219C354.479 10.2266 354.865 11.2005 354.922 12.4141L354.93 12.8594C354.93 13.6927 354.768 14.4375 354.445 15.0938C354.128 15.75 353.669 16.2578 353.07 16.6172C352.477 16.9766 351.789 17.1562 351.008 17.1562C349.815 17.1562 348.859 16.7604 348.141 15.9688C347.427 15.1719 347.07 14.112 347.07 12.7891V12.6953ZM348.969 12.8594C348.969 13.7292 349.148 14.4115 349.508 14.9062C349.867 15.3958 350.367 15.6406 351.008 15.6406C351.648 15.6406 352.146 15.3906 352.5 14.8906C352.859 14.3906 353.039 13.6589 353.039 12.6953C353.039 11.8411 352.854 11.1641 352.484 10.6641C352.12 10.1641 351.622 9.91406 350.992 9.91406C350.372 9.91406 349.88 10.1615 349.516 10.6562C349.151 11.1458 348.969 11.8802 348.969 12.8594ZM358.297 8.54688L358.352 9.52344C358.977 8.76823 359.797 8.39062 360.812 8.39062C362.573 8.39062 363.469 9.39844 363.5 11.4141V17H361.602V11.5234C361.602 10.987 361.484 10.5911 361.25 10.3359C361.021 10.0755 360.643 9.94531 360.117 9.94531C359.352 9.94531 358.781 10.2917 358.406 10.9844V17H356.508V8.54688H358.297ZM367.82 6.49219V8.54688H369.312V9.95312H367.82V14.6719C367.82 14.9948 367.883 15.2292 368.008 15.375C368.138 15.5156 368.367 15.5859 368.695 15.5859C368.914 15.5859 369.135 15.5599 369.359 15.5078V16.9766C368.927 17.0964 368.51 17.1562 368.109 17.1562C366.651 17.1562 365.922 16.3516 365.922 14.7422V9.95312H364.531V8.54688H365.922V6.49219H367.82ZM375.82 17C375.737 16.8385 375.664 16.5755 375.602 16.2109C374.997 16.8411 374.258 17.1562 373.383 17.1562C372.534 17.1562 371.841 16.9141 371.305 16.4297C370.768 15.9453 370.5 15.3464 370.5 14.6328C370.5 13.7318 370.833 13.0417 371.5 12.5625C372.172 12.0781 373.13 11.8359 374.375 11.8359H375.539V11.2812C375.539 10.8438 375.417 10.4948 375.172 10.2344C374.927 9.96875 374.555 9.83594 374.055 9.83594C373.622 9.83594 373.268 9.94531 372.992 10.1641C372.716 10.3776 372.578 10.651 372.578 10.9844H370.68C370.68 10.5208 370.833 10.0885 371.141 9.6875C371.448 9.28125 371.865 8.96354 372.391 8.73438C372.922 8.50521 373.513 8.39062 374.164 8.39062C375.154 8.39062 375.943 8.64062 376.531 9.14062C377.12 9.63542 377.422 10.3333 377.438 11.2344V15.0469C377.438 15.8073 377.544 16.4141 377.758 16.8672V17H375.82ZM373.734 15.6328C374.109 15.6328 374.461 15.5417 374.789 15.3594C375.122 15.1771 375.372 14.9323 375.539 14.625V13.0312H374.516C373.812 13.0312 373.284 13.1536 372.93 13.3984C372.576 13.6432 372.398 13.9896 372.398 14.4375C372.398 14.8021 372.518 15.0938 372.758 15.3125C373.003 15.526 373.328 15.6328 373.734 15.6328ZM382.898 15.6406C383.372 15.6406 383.766 15.5026 384.078 15.2266C384.391 14.9505 384.557 14.6094 384.578 14.2031H386.367C386.346 14.7292 386.182 15.2214 385.875 15.6797C385.568 16.1328 385.151 16.4922 384.625 16.7578C384.099 17.0234 383.531 17.1562 382.922 17.1562C381.74 17.1562 380.802 16.7734 380.109 16.0078C379.417 15.2422 379.07 14.1849 379.07 12.8359V12.6406C379.07 11.3542 379.414 10.3255 380.102 9.55469C380.789 8.77865 381.727 8.39062 382.914 8.39062C383.919 8.39062 384.737 8.6849 385.367 9.27344C386.003 9.85677 386.336 10.625 386.367 11.5781H384.578C384.557 11.0938 384.391 10.6953 384.078 10.3828C383.771 10.0703 383.378 9.91406 382.898 9.91406C382.284 9.91406 381.81 10.138 381.477 10.5859C381.143 11.0286 380.974 11.7031 380.969 12.6094V12.9141C380.969 13.8307 381.133 14.5156 381.461 14.9688C381.794 15.4167 382.273 15.6406 382.898 15.6406ZM390.18 6.49219V8.54688H391.672V9.95312H390.18V14.6719C390.18 14.9948 390.242 15.2292 390.367 15.375C390.497 15.5156 390.727 15.5859 391.055 15.5859C391.273 15.5859 391.495 15.5599 391.719 15.5078V16.9766C391.286 17.0964 390.87 17.1562 390.469 17.1562C389.01 17.1562 388.281 16.3516 388.281 14.7422V9.95312H386.891V8.54688H388.281V6.49219H390.18ZM402.234 16.1719C401.677 16.8281 400.885 17.1562 399.859 17.1562C398.943 17.1562 398.247 16.888 397.773 16.3516C397.305 15.8151 397.07 15.0391 397.07 14.0234V8.54688H398.969V14C398.969 15.0729 399.414 15.6094 400.305 15.6094C401.227 15.6094 401.849 15.2786 402.172 14.6172V8.54688H404.07V17H402.281L402.234 16.1719ZM410.742 14.7031C410.742 14.3646 410.602 14.1068 410.32 13.9297C410.044 13.7526 409.583 13.5964 408.938 13.4609C408.292 13.3255 407.753 13.1536 407.32 12.9453C406.372 12.487 405.898 11.8229 405.898 10.9531C405.898 10.224 406.206 9.61458 406.82 9.125C407.435 8.63542 408.216 8.39062 409.164 8.39062C410.174 8.39062 410.99 8.64062 411.609 9.14062C412.234 9.64062 412.547 10.2891 412.547 11.0859H410.648C410.648 10.7214 410.513 10.4193 410.242 10.1797C409.971 9.9349 409.612 9.8125 409.164 9.8125C408.747 9.8125 408.406 9.90885 408.141 10.1016C407.88 10.2943 407.75 10.5521 407.75 10.875C407.75 11.1667 407.872 11.3932 408.117 11.5547C408.362 11.7161 408.857 11.8802 409.602 12.0469C410.346 12.2083 410.93 12.4036 411.352 12.6328C411.779 12.8568 412.094 13.1276 412.297 13.4453C412.505 13.763 412.609 14.1484 412.609 14.6016C412.609 15.362 412.294 15.9792 411.664 16.4531C411.034 16.9219 410.208 17.1562 409.188 17.1562C408.495 17.1562 407.878 17.0312 407.336 16.7812C406.794 16.5312 406.372 16.1875 406.07 15.75C405.768 15.3125 405.617 14.8411 405.617 14.3359H407.461C407.487 14.7839 407.656 15.1302 407.969 15.375C408.281 15.6146 408.695 15.7344 409.211 15.7344C409.711 15.7344 410.091 15.6406 410.352 15.4531C410.612 15.2604 410.742 15.0104 410.742 14.7031Z" fill="#3C3C3C"/>
</svg>
