<svg width="210" height="35" viewBox="0 0 210 35" fill="none" xmlns="http://www.w3.org/2000/svg">
<path d="M11.24 21.472V26.272C11.24 28.672 10.184 29.536 8.504 29.536C6.824 29.536 5.768 28.672 5.768 26.272V8.128C5.768 5.728 6.824 4.816 8.504 4.816C10.184 4.816 11.24 5.728 11.24 8.128V11.728H16.232V8.464C16.232 3.088 13.544 0.0159998 8.36 0.0159998C3.176 0.0159998 0.488 3.088 0.488 8.464V25.936C0.488 31.312 3.176 34.384 8.36 34.384C13.544 34.384 16.232 31.312 16.232 25.936V21.472H11.24ZM31.1476 0.399998H23.4196L18.0436 34H22.8916L23.8036 27.904H30.2836L31.1956 34H36.5236L31.1476 0.399998ZM27.0196 6.352L29.5636 23.344H24.4756L27.0196 6.352ZM38.3105 8.464C38.3105 18.064 48.6305 19.36 48.6305 26.272C48.6305 28.672 47.5745 29.536 45.8945 29.536C44.2145 29.536 43.1585 28.672 43.1585 26.272V23.872H38.1665V25.936C38.1665 31.312 40.8545 34.384 46.0385 34.384C51.2225 34.384 53.9105 31.312 53.9105 25.936C53.9105 16.336 43.5905 15.04 43.5905 8.128C43.5905 5.728 44.5505 4.816 46.2305 4.816C47.9105 4.816 48.8705 5.728 48.8705 8.128V9.52H53.8625V8.464C53.8625 3.088 51.2225 0.0159998 46.0865 0.0159998C40.9505 0.0159998 38.3105 3.088 38.3105 8.464ZM56.6956 0.399998V25.984C56.6956 31.36 59.3836 34.432 64.5676 34.432C69.7516 34.432 72.4396 31.36 72.4396 25.984V0.399998H67.4476V26.32C67.4476 28.72 66.3916 29.584 64.7116 29.584C63.0316 29.584 61.9756 28.72 61.9756 26.32V0.399998H56.6956ZM87.7726 0.399998H80.0446L74.6686 34H79.5166L80.4286 27.904H86.9086L87.8206 34H93.1486L87.7726 0.399998ZM83.6446 6.352L86.1886 23.344H81.1006L83.6446 6.352ZM95.6075 34H109.576V29.2H100.888V0.399998H95.6075V34ZM118.654 8.464C118.654 18.064 128.974 19.36 128.974 26.272C128.974 28.672 127.918 29.536 126.238 29.536C124.558 29.536 123.502 28.672 123.502 26.272V23.872H118.51V25.936C118.51 31.312 121.198 34.384 126.382 34.384C131.566 34.384 134.254 31.312 134.254 25.936C134.254 16.336 123.934 15.04 123.934 8.128C123.934 5.728 124.894 4.816 126.574 4.816C128.254 4.816 129.214 5.728 129.214 8.128V9.52H134.206V8.464C134.206 3.088 131.566 0.0159998 126.43 0.0159998C121.294 0.0159998 118.654 3.088 118.654 8.464ZM142.559 19.6H148.559V34H153.935V0.399998H148.559V14.8H142.559V0.399998H137.279V34H142.559V19.6ZM162.612 8.128C162.612 5.728 163.668 4.816 165.348 4.816C167.028 4.816 168.084 5.728 168.084 8.128V26.272C168.084 28.672 167.028 29.584 165.348 29.584C163.668 29.584 162.612 28.672 162.612 26.272V8.128ZM157.332 25.936C157.332 31.312 160.164 34.384 165.348 34.384C170.532 34.384 173.364 31.312 173.364 25.936V8.464C173.364 3.088 170.532 0.0159998 165.348 0.0159998C160.164 0.0159998 157.332 3.088 157.332 8.464V25.936ZM182.075 5.2H191.195V0.399998H176.795V34H191.195V29.2H182.075V19.36H189.323V14.56H182.075V5.2ZM193.795 8.464C193.795 18.064 204.115 19.36 204.115 26.272C204.115 28.672 203.059 29.536 201.379 29.536C199.699 29.536 198.643 28.672 198.643 26.272V23.872H193.651V25.936C193.651 31.312 196.339 34.384 201.523 34.384C206.707 34.384 209.395 31.312 209.395 25.936C209.395 16.336 199.075 15.04 199.075 8.128C199.075 5.728 200.035 4.816 201.715 4.816C203.395 4.816 204.355 5.728 204.355 8.128V9.52H209.347V8.464C209.347 3.088 206.707 0.0159998 201.571 0.0159998C196.435 0.0159998 193.795 3.088 193.795 8.464Z" fill="#363958"/>
</svg>
